<svg fill="none" xmlns="http://www.w3.org/2000/svg" viewBox="0 0 513 203"><path d="M35.14 181.397c-4.12 0-6.18-1.042-6.18-3.127 0-.298.05-.595.15-.893.496-1.092 1.265-1.638 2.307-1.638.298 0 .596.05.894.149.992.397 2.134.595 3.424.595 3.127 0 7.123-1.191 11.986-3.573 4.914-2.382 10.672-6.279 17.273-11.688 6.65-5.41 14.145-12.582 22.483-21.516 6.65-7.147 13.798-15.535 21.441-25.164l-3.052-.819a437.733 437.733 0 0 0-23.6-5.434c-7.842-1.638-15.46-2.457-22.856-2.457-7.197 0-14.07 1.092-20.622 3.276-6.552 2.183-12.632 5.98-18.24 11.39-5.609 5.41-10.597 12.855-14.964 22.335-.596.992-1.365 1.489-2.308 1.489-.348 0-.695-.075-1.043-.224-.992-.595-1.489-1.365-1.489-2.308 0-.347.075-.694.224-1.042 6.8-14.84 15.311-25.436 25.536-31.789 9.033-5.559 19.729-8.339 32.087-8.339 7.792 0 15.783.844 23.972 2.532a438.302 438.302 0 0 1 24.568 5.658l5.286 1.34c16.28-20.796 34.619-48.02 55.018-81.67.595-.894 1.34-1.34 2.233-1.34.348 0 .695.074 1.042.223.993.596 1.489 1.39 1.489 2.382 0 .348-.074.695-.223 1.043-13.996 30.375-23.6 57.45-28.811 81.223l-.894 3.946c2.879.298 5.683.446 8.413.446 5.608 0 10.919-.744 15.932-2.233s9.604-4.045 13.773-7.668c.496-.447 1.042-.67 1.638-.67.744 0 1.34.273 1.786.819.497.546.745 1.116.745 1.712 0 .695-.273 1.34-.819 1.936-4.715 4.07-9.827 6.948-15.336 8.636-5.51 1.687-11.292 2.531-17.347 2.531-3.176 0-6.427-.174-9.753-.521-1.638 9.43-2.456 17.421-2.456 23.972 0 7.941 1.091 13.6 3.275 16.975.248.446.372.918.372 1.414 0 .794-.372 1.489-1.116 2.085-.447.248-.894.372-1.34.372-.844 0-1.564-.372-2.159-1.117-2.631-4.119-3.946-10.795-3.946-20.027 0-6.799.794-14.889 2.382-24.27-7.147-1.141-14.468-2.63-21.962-4.467-8.239 10.522-15.982 19.605-23.228 27.249-8.686 9.33-16.577 16.8-23.675 22.409-7.097 5.608-13.35 9.653-18.76 12.135-5.41 2.481-9.927 3.722-13.55 3.722Zm102.143-66.036.893-4.467c3.276-14.989 8.686-32.285 16.23-51.89-13.202 20.399-25.412 37.894-36.628 52.486a250.257 250.257 0 0 0 19.505 3.871Zm70.652 11.763c-2.531 0-4.79-.471-6.775-1.414-3.871-1.986-6.328-5.237-7.37-9.753l-.224-.894c-4.665 4.07-8.164 6.155-10.497 6.254-2.085 0-3.127-1.464-3.127-4.392 0-2.085.571-4.765 1.712-8.041 1.241-3.722 2.978-6.675 5.212-8.859 1.439-1.29 2.928-1.936 4.467-1.936.794 0 1.588.199 2.382.596.993-5.609 2.308-10.895 3.946-15.858 3.871-11.465 8.512-20.448 13.922-26.95 4.566-5.46 8.685-8.19 12.358-8.19 1.042 0 2.01.224 2.904.67 1.886 1.043 3.102 2.929 3.648 5.659.149.794.223 1.687.223 2.68 0 2.78-.67 6.229-2.01 10.348-1.34 4.07-3.524 8.661-6.552 13.773-5.261 8.487-12.06 17.223-20.398 26.206l-4.244 4.318c.397 5.112 2.258 8.537 5.584 10.274 1.29.595 2.903.918 4.839.968 3.275 0 6.973-1.266 11.093-3.797 6.154-4.02 10.844-8.09 14.07-12.21.497-.546 1.067-.819 1.713-.819.496 0 .992.224 1.489.67.496.397.744.919.744 1.564 0 .496-.149.968-.447 1.414-3.523 4.467-8.611 8.885-15.262 13.252-4.913 2.978-9.38 4.467-13.4 4.467Zm-23.452-10.795c2.085-1.092 4.889-3.325 8.413-6.7l-.074-2.159c0-1.737.074-2.854.223-3.351v-.297c-.645-.646-1.241-.968-1.787-.968-.496 0-.968.198-1.414.595-1.588 1.539-2.929 3.847-4.02 6.924-.795 2.333-1.241 4.318-1.341 5.956Zm12.955-11.316 1.042-1.042c8.09-8.785 14.691-17.273 19.803-25.462 2.78-4.715 4.79-8.884 6.03-12.507 1.241-3.673 1.862-6.7 1.862-9.083 0-.744-.05-1.44-.149-2.084-.298-1.787-1.018-2.68-2.159-2.68-.497 0-1.117.173-1.861.52-2.135.944-4.591 3.127-7.371 6.552-2.73 3.375-5.584 8.164-8.561 14.369-1.39 2.878-3.028 7.27-4.914 13.177a85.42 85.42 0 0 0-3.722 18.017v.223Zm40.053 3.276.149-.149a.489.489 0 0 0 .223-.224c1.737-1.389 3.003-2.63 3.797-3.722 1.092-1.588 1.638-2.73 1.638-3.425v-.297c-1.092 0-2.358 1.017-3.797 3.052-.893 1.29-1.539 2.779-1.936 4.467l-.074.298Zm7.742 14.517c-3.275 0-5.906-.695-7.891-2.084-3.127-2.234-4.69-5.435-4.69-9.604 0-1.44.173-2.854.521-4.244.595-2.184 1.464-4.144 2.606-5.881 2.382-3.227 4.739-4.89 7.072-4.988h.372c.993 0 1.837.248 2.532.744 1.34.794 2.01 2.11 2.01 3.946 0 3.127-2.333 6.7-6.998 10.72a53.523 53.523 0 0 1-3.276 2.383c.347 1.29 1.141 2.382 2.382 3.276 1.241.843 3.028 1.265 5.36 1.265 3.028 0 6.353-.769 9.977-2.308 5.558-2.432 10.1-5.583 13.624-9.455.496-.546 1.067-.819 1.712-.819.496 0 .993.224 1.489.67.496.447.744.993.744 1.638 0 .546-.173 1.043-.521 1.489-4.07 4.418-9.182 7.966-15.336 10.646-4.07 1.737-7.966 2.606-11.689 2.606Zm53.455.223c-5.559 0-9.406-2.159-11.54-6.477-.844-1.786-1.266-3.97-1.266-6.551 0-1.588.174-3.325.522-5.211l.297-1.713c-.645.397-1.389.968-2.233 1.713-3.326 3.027-6.502 6.675-9.53 10.943-1.24 1.738-1.96 2.954-2.159 3.648a1.328 1.328 0 0 1-.372.745c-.744 1.141-1.712 1.712-2.903 1.712-1.539 0-2.358-1.241-2.457-3.722l.074-2.159c.1-2.184.77-5.534 2.01-10.051 1.043-3.772 2.259-6.924 3.648-9.455.497-.744 1.117-1.116 1.862-1.116.397 0 .794.099 1.191.297.744.546 1.117 1.191 1.117 1.936 0 .397-.1.77-.298 1.117-1.737 2.978-3.202 7.42-4.393 13.326 2.879-4.02 5.956-7.544 9.232-10.572 2.482-2.233 4.541-3.35 6.179-3.35 1.142 0 2.06.521 2.755 1.564.496.694.744 1.712.744 3.052 0 .844-.124 1.836-.372 2.978-.347 1.638-.521 3.102-.521 4.392 0 1.837.322 3.351.968 4.542 1.29 2.63 3.747 3.945 7.37 3.945 1.191 0 2.457-.148 3.797-.446 6.651-1.39 13.202-5.286 19.654-11.689.447-.446.968-.67 1.564-.67.546 0 1.067.224 1.563.67.497.447.745.968.745 1.564 0 .595-.224 1.117-.67 1.563-7.147 7.048-14.468 11.366-21.963 12.954a21.541 21.541 0 0 1-4.615.521Zm36.405.596c-1.539 0-2.978-.149-4.318-.447-3.326-.893-5.658-2.382-6.998-4.467-1.34-2.084-2.01-4.566-2.01-7.444 0-3.673.893-7.867 2.68-12.582.446-1.043 1.141-1.564 2.084-1.564.794 0 1.415.323 1.861.968.249.397.373.844.373 1.34l-.075.67c-1.638 4.467-2.457 8.214-2.457 11.242 0 3.971 1.862 6.452 5.584 7.445 1.042.248 2.134.372 3.276.372 3.573 0 7.519-.893 11.837-2.68 6.651-2.73 11.713-6.03 15.188-9.902.546-.546 1.141-.819 1.786-.819.497 0 .968.224 1.415.67.496.397.744.919.744 1.564 0 .546-.173 1.042-.521 1.489-4.02 4.467-9.678 8.214-16.974 11.242-4.765 1.935-9.256 2.903-13.475 2.903Zm-6.254-33.874c-.496 0-.968-.174-1.414-.521-.447-.397-.695-.943-.745-1.638.05-.794.298-1.464.745-2.01a6.92 6.92 0 0 1 1.638-1.34c.645-.348 1.191-.62 1.637-.82l.745-.223h.223c.645-.148 1.167-.223 1.564-.223.843 0 1.29.323 1.34.968 0 .596-.422 1.489-1.266 2.68-.149.397-.769 1.042-1.861 1.936a1.75 1.75 0 0 1-1.042.52c-.397.448-.919.67-1.564.67Zm50.402 37.373c-4.417 0-7.42-1.762-9.008-5.286-.497-1.29-.745-2.804-.745-4.541 0-2.085.422-4.566 1.266-7.445-1.34-.298-2.482-.62-3.425-.968-.496.397-1.017.596-1.563.596-.447 0-.894-.149-1.34-.447-.596-.496-.894-1.117-.894-1.861v-.223c-1.985-1.589-2.978-3.202-2.978-4.84 0-.347.025-.67.075-.967.546-2.234 1.886-3.872 4.02-4.914 1.141-.596 2.283-.893 3.425-.893.992 0 1.91.297 2.754.893.844.596 1.266 1.588 1.266 2.978 0 1.489-.695 3.449-2.085 5.881 1.092.298 2.457.596 4.095.894l.372.074c.943.496 1.415 1.191 1.415 2.085 0 .297-.05.57-.149.819-1.241 3.375-1.861 6.104-1.861 8.189 0 1.142.173 2.109.521 2.903.744 1.738 2.407 2.606 4.988 2.606 1.042 0 2.184-.149 3.424-.447 3.624-.843 7.42-2.63 11.391-5.36 3.971-2.73 7.519-6.129 10.646-10.199.496-.596 1.092-.894 1.787-.894.447 0 .893.174 1.34.521.596.546.893 1.142.893 1.787 0 .497-.149.943-.446 1.34-3.475 4.467-7.42 8.214-11.838 11.242-6.402 4.318-12.184 6.477-17.346 6.477Zm-13.326-23.749c1.389-2.035 2.084-3.226 2.084-3.573 0-.05-.025-.075-.074-.075-.199 0-.596.149-1.192.447-.992.546-1.538 1.141-1.637 1.786v.149c0 .397.273.819.819 1.266Zm41.244 11.614c.099 0 .844-.571 2.233-1.712 2.432-2.135 4.914-4.691 7.445-7.669-1.141-1.141-2.208-1.712-3.201-1.712-.844 0-1.613.323-2.308.968-1.687 1.588-2.928 3.598-3.722 6.03-.397 1.39-.596 2.482-.596 3.276 0 .397.05.67.149.819Zm22.93 7.594c-5.41 0-8.81-2.159-10.199-6.477-.298-.993-.447-2.134-.447-3.425 0-1.141.124-2.382.372-3.722-2.481 2.928-5.013 5.534-7.593 7.817-2.184 1.737-4.021 2.605-5.51 2.605-1.24 0-2.233-.496-2.978-1.489-.744-1.042-1.116-2.332-1.116-3.871 0-1.39.248-2.879.744-4.467 1.042-3.226 2.73-5.931 5.063-8.115 1.638-1.538 3.424-2.308 5.36-2.308 1.936 0 3.921.993 5.956 2.978 1.042-1.24 1.985-2.233 2.829-2.978.893-.794 1.712-1.19 2.457-1.19.248 0 .496.049.744.148.894.348 1.34 1.067 1.34 2.159 0 .745-.248 1.712-.744 2.904-1.638 4.02-2.457 7.196-2.457 9.529 0 2.73 1.042 4.393 3.127 4.988.844.248 1.836.372 2.978.372 1.042 0 2.184-.099 3.424-.297 3.971-.695 7.991-2.11 12.061-4.244 4.07-2.184 7.37-4.541 9.902-7.073.446-.446.968-.67 1.563-.67.596 0 1.117.249 1.564.745.446.447.67.968.67 1.563 0 .546-.199 1.067-.596 1.564-2.829 2.829-6.502 5.434-11.018 7.817-4.517 2.332-8.984 3.921-13.401 4.764a24.05 24.05 0 0 1-4.095.373Zm54.72.446c-5.559 0-9.405-2.159-11.54-6.477-.843-1.786-1.265-3.97-1.265-6.551 0-1.588.173-3.325.521-5.211l.298-1.713c-.646.397-1.39.968-2.234 1.713-3.325 3.027-6.502 6.675-9.529 10.943-1.241 1.738-1.961 2.954-2.159 3.648-.05.298-.174.546-.372.745-.745 1.141-1.713 1.712-2.904 1.712-1.539 0-2.358-1.241-2.457-3.722l.075-2.159c.099-2.184.769-5.534 2.01-10.051 1.042-3.772 2.258-6.924 3.648-9.455.496-.744 1.116-1.116 1.861-1.116.397 0 .794.099 1.191.297.745.546 1.117 1.191 1.117 1.936 0 .397-.099.77-.298 1.117-1.737 2.978-3.201 7.42-4.392 13.326 2.878-4.02 5.956-7.544 9.231-10.572 2.482-2.233 4.542-3.35 6.179-3.35 1.142 0 2.06.521 2.755 1.564.496.694.745 1.712.745 3.052 0 .844-.125 1.836-.373 2.978-.347 1.638-.521 3.102-.521 4.392 0 1.837.323 3.351.968 4.542 1.29 2.63 3.747 3.945 7.37 3.945 1.192 0 2.457-.148 3.797-.446 6.651-1.39 13.202-5.286 19.655-11.689.446-.446.968-.67 1.563-.67.546 0 1.067.224 1.564.67.496.447.744.968.744 1.564 0 .595-.223 1.117-.67 1.563-7.147 7.048-14.468 11.366-21.962 12.954a21.55 21.55 0 0 1-4.616.521ZM190.512 187.421c-2.078 0-4.002-.365-5.771-1.095a14.42 14.42 0 0 1-4.591-3.159c-1.292-1.348-2.303-2.935-3.033-4.76-.702-1.853-1.053-3.875-1.053-6.065 0-2.191.351-4.198 1.053-6.024.73-1.853 1.741-3.454 3.033-4.801a13.591 13.591 0 0 1 4.591-3.16c1.769-.758 3.693-1.137 5.771-1.137 2.106 0 4.029.379 5.77 1.137 1.769.731 3.3 1.784 4.591 3.16 1.32 1.347 2.331 2.948 3.033 4.801.73 1.826 1.095 3.833 1.095 6.024 0 2.162-.365 4.17-1.095 6.023a14.248 14.248 0 0 1-3.033 4.802 13.816 13.816 0 0 1-4.591 3.159c-1.741.73-3.664 1.095-5.77 1.095Zm0-3.243c1.6 0 3.074-.281 4.422-.843a10.217 10.217 0 0 0 3.539-2.485 11.276 11.276 0 0 0 2.274-3.749c.562-1.46.843-3.046.843-4.759 0-1.741-.281-3.328-.843-4.76-.533-1.46-1.292-2.724-2.274-3.791a10.23 10.23 0 0 0-3.539-2.485c-1.348-.59-2.822-.885-4.422-.885-1.601 0-3.089.295-4.465.885a10.319 10.319 0 0 0-3.496 2.485c-.983 1.067-1.741 2.331-2.275 3.791-.533 1.432-.8 3.019-.8 4.76 0 1.713.267 3.299.8 4.759.534 1.433 1.292 2.682 2.275 3.749a10.305 10.305 0 0 0 3.496 2.485c1.376.562 2.864.843 4.465.843ZM211.41 187v-29.485h11.668c1.544 0 2.934.379 4.17 1.137 1.236.758 2.218 1.812 2.948 3.159.731 1.32 1.096 2.809 1.096 4.465 0 1.741-.365 3.3-1.096 4.676-.73 1.348-1.712 2.429-2.948 3.243-1.236.786-2.626 1.179-4.17 1.179h-8.382V187h-3.286Zm3.286-14.827h8.55c.871 0 1.643-.252 2.317-.758.702-.533 1.264-1.235 1.685-2.106.421-.899.632-1.924.632-3.075 0-1.039-.211-1.966-.632-2.78-.421-.842-.983-1.502-1.685-1.98a3.761 3.761 0 0 0-2.317-.758h-8.55v11.457ZM237.613 187v-29.485h17.859v3.201h-14.574v23.083h14.49V187h-17.775Zm1.516-13.563v-3.201h13.984v3.201h-13.984ZM270.873 187v-14.7l.295 2.064-11.92-16.849h4.001l9.772 13.984-.884-.084 8.972-13.9h3.791l-11.415 17.312.632-2.864V187h-3.244Zm19.104 0v-29.485h17.859v3.201h-14.574v23.083h14.49V187h-17.775Zm1.516-13.563v-3.201h13.984v3.201h-13.984ZM315.192 187v-29.485h3.201l11.331 18.407-1.517-.042 11.457-18.365h2.991V187h-3.285v-13.479c0-2.527.042-4.802.126-6.824.084-2.021.239-4.029.463-6.023l.59 1.18-10.573 16.595h-2.274l-10.278-16.385.464-1.39c.224 1.882.379 3.819.463 5.813.084 1.966.126 4.31.126 7.034V187h-3.285Zm34.767 0v-3.117h4.759v-23.251h-4.759v-3.117h12.805v3.117h-4.76v23.251h4.76V187h-12.805Z" fill="#000"/></svg>