<svg fill="none" xmlns="http://www.w3.org/2000/svg" viewBox="0 0 52 11"><path d="M.888 9V.48h2.436l2.172 6.204L7.656.48h2.436V9H8.268V3.48L6.264 8.976h-1.56L2.712 3.48V9H.888Zm14.165.192c-.736 0-1.368-.124-1.896-.372a2.94 2.94 0 0 1-1.236-1.044c-.296-.448-.464-.976-.504-1.584l1.836-.084c.048.336.144.624.288.864.152.232.352.408.6.528.256.12.568.18.936.18.304 0 .56-.036.768-.108.216-.072.38-.18.492-.324a.905.905 0 0 0 .168-.552c0-.2-.048-.372-.144-.516-.096-.152-.28-.288-.552-.408-.272-.128-.672-.252-1.2-.372-.728-.168-1.316-.356-1.764-.564-.44-.208-.76-.468-.96-.78-.2-.32-.3-.72-.3-1.2 0-.512.124-.96.372-1.344.256-.384.624-.684 1.104-.9.48-.216 1.052-.324 1.716-.324.704 0 1.3.124 1.788.372s.868.588 1.14 1.02c.28.432.448.928.504 1.488l-1.824.096a1.672 1.672 0 0 0-.24-.768 1.371 1.371 0 0 0-.552-.516 1.81 1.81 0 0 0-.84-.18c-.416 0-.744.092-.984.276a.876.876 0 0 0-.348.72c0 .208.052.384.156.528.112.136.292.256.54.36.256.104.616.204 1.08.3.792.16 1.416.364 1.872.612.464.24.792.528.984.864.192.336.288.72.288 1.152 0 .528-.136.988-.408 1.38-.264.384-.644.68-1.14.888-.488.208-1.068.312-1.74.312Zm7.698-.048c-.656 0-1.228-.136-1.716-.408a2.933 2.933 0 0 1-1.14-1.176c-.272-.504-.408-1.096-.408-1.776 0-.68.136-1.268.408-1.764a2.933 2.933 0 0 1 1.14-1.176c.488-.28 1.06-.42 1.716-.42.568 0 1.076.1 1.524.3.456.2.824.488 1.104.864.28.376.452.828.516 1.356l-1.86.084c-.056-.4-.2-.7-.432-.9-.224-.208-.508-.312-.852-.312-.448 0-.796.172-1.044.516-.248.344-.372.828-.372 1.452s.124 1.112.372 1.464c.248.344.596.516 1.044.516.344 0 .632-.104.864-.312.232-.216.372-.54.42-.972l1.86.072a2.845 2.845 0 0 1-.504 1.38 2.751 2.751 0 0 1-1.092.9c-.448.208-.964.312-1.548.312ZM26.659 9V7.164h1.956V9h-1.956Zm4.684 1.044c-.28 0-.548-.04-.804-.12-.248-.072-.464-.232-.648-.48a8.44 8.44 0 0 1 .168-.84 90.07 90.07 0 0 1 .78-2.7c.152-.496.3-.968.444-1.416l.396-1.188c.12-.344.208-.592.264-.744.024-.064.064-.16.12-.288.056-.128.128-.26.216-.396s.188-.248.3-.336a.604.604 0 0 1 .384-.144c.136 0 .288.056.456.168-.248.56-.5 1.184-.756 1.872-.248.68-.488 1.384-.72 2.112a74.76 74.76 0 0 0-.624 2.112c-.184.68-.336 1.304-.456 1.872.064.024.152.04.264.048.12.016.232.024.336.024.52 0 1.016-.128 1.488-.384.472-.248.904-.58 1.296-.996a7.36 7.36 0 0 0 1.044-1.416 7.68 7.68 0 0 0 .684-1.62c.16-.552.24-1.08.24-1.584 0-.648-.112-1.172-.336-1.572a1.972 1.972 0 0 0-.9-.888 2.913 2.913 0 0 0-1.32-.288c-.52 0-.988.096-1.404.288-.416.184-.744.44-.984.768-.232.32-.348.688-.348 1.104 0 .088.008.184.024.288.016.096.044.192.084.288-.344 0-.592-.072-.744-.216a.773.773 0 0 1-.216-.552c0-.28.1-.564.3-.852.208-.288.492-.552.852-.792a4.651 4.651 0 0 1 1.272-.588c.48-.152 1-.228 1.56-.228.784 0 1.412.152 1.884.456.472.296.812.7 1.02 1.212.216.504.324 1.068.324 1.692 0 .688-.112 1.348-.336 1.98-.216.624-.52 1.2-.912 1.728a6.664 6.664 0 0 1-1.344 1.38 6.14 6.14 0 0 1-1.62.912 4.827 4.827 0 0 1-1.728.324Zm6.466-.48a.978.978 0 0 1-.684-.264c-.2-.176-.3-.44-.3-.792 0-.28.064-.584.192-.912a4.947 4.947 0 0 1 1.296-1.836 3.89 3.89 0 0 1 .924-.636c.328-.16.656-.24.984-.24.344 0 .636.088.876.264.24.176.36.408.36.696 0 .216-.076.372-.228.468a.722.722 0 0 1-.54.084c.016-.072.028-.144.036-.216a1.049 1.049 0 0 0-.072-.66c-.064-.128-.2-.192-.408-.192-.224 0-.452.076-.684.228a3.298 3.298 0 0 0-.672.6c-.208.24-.396.508-.564.804a4.76 4.76 0 0 0-.396.852 2.36 2.36 0 0 0-.144.756c0 .256.092.384.276.384.184 0 .388-.088.612-.264a4.97 4.97 0 0 0 .672-.684c.232-.272.452-.548.66-.828.208-.288.388-.532.54-.732.024-.04.056-.06.096-.06.032.008.092.028.18.06a.79.79 0 0 1 .264.12c.08.056.12.128.12.216 0 .08-.036.184-.108.312-.064.12-.144.256-.24.408a4.752 4.752 0 0 0-.24.444 1.03 1.03 0 0 0-.096.42c0 .104.028.204.084.3.056.088.148.132.276.132.192 0 .46-.14.804-.42.352-.288.708-.772 1.068-1.452l.228.228a5.132 5.132 0 0 1-.696 1.152 3.393 3.393 0 0 1-.84.768 1.639 1.639 0 0 1-.9.288c-.328 0-.572-.104-.732-.312a1.219 1.219 0 0 1-.264-.672v-.06c-.32.384-.616.688-.888.912-.264.224-.548.336-.852.336Zm5.752-.012c-.352 0-.636-.104-.852-.312-.216-.208-.324-.524-.324-.948 0-.328.06-.736.18-1.224.128-.488.288-.992.48-1.512a1.182 1.182 0 0 0-.204-.036 1.141 1.141 0 0 1-.216-.072v-.372c.128.016.232.028.312.036l.264.024c.168-.424.348-.832.54-1.224.2-.4.396-.756.588-1.068.2-.312.388-.556.564-.732.176-.184.332-.276.468-.276a.34.34 0 0 1 .228.096c.072.056.108.14.108.252 0 .16-.084.388-.252.684-.16.296-.36.644-.6 1.044-.24.392-.472.812-.696 1.26h.372c.352 0 .668-.004.948-.012.288-.016.58-.04.876-.072v.396c-.44.04-.844.072-1.212.096-.368.024-.72.04-1.056.048h-.144a12.13 12.13 0 0 0-.444 1.212 4.24 4.24 0 0 0-.18 1.2c0 .328.052.56.156.696.104.136.268.204.492.204.4 0 .808-.18 1.224-.54.424-.368.792-.864 1.104-1.488l.168.12c-.208.472-.468.9-.78 1.284a3.728 3.728 0 0 1-.996.9c-.36.224-.732.336-1.116.336Zm3.037.012a.978.978 0 0 1-.684-.264c-.2-.176-.3-.44-.3-.792 0-.28.064-.584.192-.912a4.947 4.947 0 0 1 1.296-1.836 3.89 3.89 0 0 1 .924-.636c.328-.16.656-.24.984-.24.344 0 .636.088.876.264.24.176.36.408.36.696 0 .216-.076.372-.228.468a.722.722 0 0 1-.54.084c.016-.072.028-.144.036-.216a1.049 1.049 0 0 0-.072-.66c-.064-.128-.2-.192-.408-.192-.224 0-.452.076-.684.228a3.298 3.298 0 0 0-.672.6c-.208.24-.396.508-.564.804a4.76 4.76 0 0 0-.396.852 2.36 2.36 0 0 0-.144.756c0 .256.092.384.276.384.184 0 .388-.088.612-.264a4.97 4.97 0 0 0 .672-.684c.232-.272.452-.548.66-.828.208-.288.388-.532.54-.732.024-.04.056-.06.096-.06.032.008.092.028.18.06a.79.79 0 0 1 .264.12c.08.056.12.128.12.216 0 .08-.036.184-.108.312-.064.12-.144.256-.24.408a4.752 4.752 0 0 0-.24.444 1.03 1.03 0 0 0-.096.42c0 .104.028.204.084.3.056.088.148.132.276.132.192 0 .46-.14.804-.42.352-.288.708-.772 1.068-1.452l.228.228a5.132 5.132 0 0 1-.696 1.152 3.393 3.393 0 0 1-.84.768 1.639 1.639 0 0 1-.9.288c-.328 0-.572-.104-.732-.312a1.219 1.219 0 0 1-.264-.672v-.06c-.32.384-.616.688-.888.912-.264.224-.548.336-.852.336Z" fill="#000"/></svg>